<?xml version="1.0" standalone="yes"?>

<svg version="1.1" viewBox="0.0 0.0 262.0 252.0" fill="none" stroke="none" stroke-linecap="square" stroke-miterlimit="10" xmlns="http://www.w3.org/2000/svg" xmlns:xlink="http://www.w3.org/1999/xlink"><clipPath id="p.0"><path d="m0 0l262.0 0l0 252.0l-262.0 0l0 -252.0z" clip-rule="nonzero"></path></clipPath><g clip-path="url(#p.0)"><path fill="#000000" fill-opacity="0.0" d="m0 0l262.7244 0l0 252.6588l-262.7244 0z" fill-rule="nonzero"></path><path fill="#000000" fill-opacity="0.0" d="m129.37534 33.750656l240.94485 0l0 221.25984l-240.94485 0z" fill-rule="nonzero"></path><path fill="#434a54" d="m28.102362 20.250216l206.51968 0l0 212.15749l-206.51968 0z" fill-rule="nonzero"></path><path fill="#000000" fill-opacity="0.0" d="m45.27034 110.46982l198.67717 0l0 87.74803l-198.67717 0z" fill-rule="nonzero"></path><path fill="#e6e9ed" d="m92.67659 216.96982q-7.3125 0 -13.3125 -2.390625q-6.0 -2.40625 -10.296875 -7.0q-4.296875 -4.609375 -6.65625 -11.359375q-2.34375 -6.75 -2.34375 -15.453125q0 -8.703125 2.640625 -15.453125q2.65625 -6.75 7.15625 -11.34375q4.5 -4.59375 10.5 -7.0q6.0 -2.40625 12.8125 -2.40625q4.296875 0 7.734375 0.609375q3.453125 0.59375 6.0 1.40625q2.5625 0.796875 4.15625 1.59375q1.609375 0.796875 2.203125 1.203125l-2.796875 8.0q-0.90625 -0.609375 -2.609375 -1.296875q-1.6875 -0.703125 -3.84375 -1.40625q-2.15625 -0.703125 -4.703125 -1.15625q-2.546875 -0.453125 -5.140625 -0.453125q-5.5 0 -9.90625 1.90625q-4.40625 1.90625 -7.5 5.5q-3.09375 3.59375 -4.75 8.75q-1.65625 5.15625 -1.65625 11.546875q0 6.203125 1.453125 11.3125q1.453125 5.09375 4.34375 8.75q2.90625 3.640625 7.25 5.640625q4.359375 2.0 10.15625 2.0q6.703125 0 11.09375 -1.390625q4.40625 -1.40625 6.609375 -2.515625l2.5 8.0q-0.703125 0.5 -2.5 1.25q-1.796875 0.75 -4.5 1.453125q-2.703125 0.703125 -6.3125 1.203125q-3.59375 0.5 -7.78125 0.5zm28.890564 -35.40625l18.90625 0l0 -20.59375l8.0 0l0 20.59375l18.890625 0l0 7.90625l-18.890625 0l0 20.703125l-8.0 0l0 -20.703125l-18.90625 0l0 -7.90625zm56.39995 0l18.90625 0l0 -20.59375l8.0 0l0 20.59375l18.890625 0l0 7.90625l-18.890625 0l0 20.703125l-8.0 0l0 -20.703125l-18.90625 0l0 -7.90625z" fill-rule="nonzero"></path></g></svg>

